<?xml version="1.0" standalone="no"?>
<!DOCTYPE svg PUBLIC "-//W3C//DTD SVG 1.1//EN" "http://www.w3.org/Graphics/SVG/1.1/DTD/svg11.dtd" >
<svg xmlns="http://www.w3.org/2000/svg">
<metadata>
This is a custom SVG webfont generated by Font Squirrel.
Copyright   : 2011 Duck Reid
</metadata>
<defs>
<font id="JustDuckySemiSerif" horiz-adv-x="1240" >
<font-face units-per-em="2048" ascent="1565" descent="-483" />
<missing-glyph horiz-adv-x="600" />
<glyph unicode=" "  horiz-adv-x="600" />
<glyph unicode="&#x09;" horiz-adv-x="600" />
<glyph unicode="&#xa0;" horiz-adv-x="600" />
<glyph unicode="!" horiz-adv-x="362" d="M117 1420h115l-13 -1123q-10 -1 -64 0zM174 43q40 -5 59.5 23t3 56.5t-62.5 31.5q-88 -52 0 -111z" />
<glyph unicode="&#x22;" horiz-adv-x="450" d="M73 1352q11 61 63 66q46 -10 48 -70t-13.5 -127.5t-38.5 -187.5q-31 118 -50.5 188t-8.5 131zM273 1356q11 61 63 66q46 -10 48 -70t-13.5 -127.5t-38.5 -187.5q-31 118 -50.5 188t-8.5 131z" />
<glyph unicode="#" horiz-adv-x="1180" d="M96 504l12 98q65 -2 104 -2h74q33 0 33 2q0 1 6 38.5t13 72.5t21 110l-248 10l24 97q187 -10 237 -7l64 461l107 2l-67 -456l250 1l89 449l108 3l-93 -452l312 7l-22 -91l-297 -9l-48 -242l318 12l-21 -107l-313 -7l-81 -431q-47 4 -97 1q25 114 43.5 213t39.5 221 q-74 5 -254 -2q1 0 -16.5 -72t-38.5 -153t-47 -219h-94l93 452h-211zM419 593q89 6 259 3q6 16 9.5 47t10.5 73t18 115l-253 -4z" />
<glyph unicode="$" horiz-adv-x="1034" d="M101 995.5q-18 -205.5 244 -280.5q18 -50 -9 -359q-58 0 -129 24t-83 21t-17 -190l229 -27q0 -53 3 -160q0 -11 92 0q0 -2 -2 25.5t-3.5 52t-1.5 79.5q20 -3 62.5 -5.5t52.5 -0.5q-4 -70 -5 -148l107 -3q2 156 3.5 154t64.5 0q268 31 241 309t-315 317l-12 398 q68 -6 184 -92q0 4 31 43.5t44 33.5q-52 54 -119 86t-151 47q0 -2 -0.5 37.5t-2.5 72.5q-27 0 -48 -5.5t-44 -3.5q2 -33 0.5 -49.5t-0.5 -48.5q-26 0 -40 -3t-40 -6q-8 -2 -9 33t0 68l-83 -6q1 -71 -3 -133q-223 -75 -241 -280.5zM214 994q0 129 119 175l6 -341 q-125 37 -125 166zM427 512.5q1 66.5 4 178.5l100 -12q-8 -103 -5.5 -228.5t3.5 -121.5q-57 5 -101 9q-2 108 -1 174.5zM428 813q0 -2 1 129t5 251q64 11 86 9q10 -2 12 -64t0.5 -135.5t-6.5 -195.5q-30 2 -98 6zM635 673q166 -47 187 -198q14 -152 -181 -155z" />
<glyph unicode="%" horiz-adv-x="848" d="M175 55l347 721l-100 -37l-9 -39q-42 -128 -142 -91.5t-49 144.5t189 8l124 46l25 67l130 24l-332 -591q28 -22 70 -50q30 70 99.5 70.5t82.5 -84.5q2 -88 -84 -96t-98 86q-43 30 -79 52q-99 -186 -113 -230h-61zM267.5 722.5q-25.5 -57.5 33.5 -67t62 77.5 q-70 47 -95.5 -10.5zM477 239q-8 -60 54 -48.5t21 76.5q-51 54 -75 -28z" />
<glyph unicode="&#x26;" horiz-adv-x="1270" d="M68 234q-18 75 1.5 143t62.5 125t104.5 102t127.5 73q-54 8 -110.5 50.5t-93.5 107.5t-44 146t39 167q45 84 144.5 132.5t211 55.5t215.5 -29.5t160 -122.5q54 -87 44.5 -171t-51.5 -153t-100 -115.5t-99 -56.5q15 -4 51.5 -20.5t77.5 -42t78.5 -57.5t55.5 -68q1 -5 4 16 t6 51t5.5 61.5t2.5 48.5q0 3 17.5 -2.5t41 -11t45 -6t29.5 12.5q1 2 1 -39t-3.5 -95t-13 -107.5t-27.5 -75.5l162 -238l-144 -93l-119 190q-103 -98 -239 -148t-266 -49.5t-234 54.5t-143 165zM228.5 349q-3.5 -28 1 -51t11.5 -35q28 -57 70.5 -86.5t93.5 -38.5t107 -2.5 t111 22.5q61 17 107.5 49.5t77.5 65t63 80.5q-3 18 -14.5 37t-36 48.5t-71.5 69.5q-46 37 -104.5 69.5t-90.5 38.5q-2 0 -32 -12.5t-71.5 -33.5t-85 -48t-73.5 -54q-31 -29 -45.5 -60t-18 -59zM259 972q10 -54 35 -90t77.5 -72t146.5 -54q47 15 93 38t84.5 53.5t64.5 68 t32 81.5q5 42 -12.5 83t-53.5 71.5t-87 48t-113 13.5q-95 -7 -148.5 -46t-80 -82.5t-38.5 -112.5z" />
<glyph unicode="'" horiz-adv-x="241" d="M61 1362q11 61 63 66q46 -10 48 -70t-13.5 -127.5t-38.5 -187.5q-31 118 -50.5 188t-8.5 131z" />
<glyph unicode="(" horiz-adv-x="640" d="M83 742q-14 -574 464 -688q-382 142 -382.5 652t458.5 707q-526 -97 -540 -671z" />
<glyph unicode=")" horiz-adv-x="630" d="M22 1413q526 -97 540 -671t-464 -688q382 142 382.5 652t-458.5 707z" />
<glyph unicode="*" horiz-adv-x="603" d="M70 1075l156 56l-103 133l147 -74l48 161l29 -164l164 34q8 3 -123 -108l136 -74q-109 9 -167 11l11 -156q-43 78 -76 129q-57 -44 -120 -101l62 143z" />
<glyph unicode="+" horiz-adv-x="858" d="M55 942h310v-329l116 -1v329l317 1v110h-313v290q-52 3 -128 2v-294h-302v-108z" />
<glyph unicode="," horiz-adv-x="284" d="M45.5 90q8.5 31 18.5 46q34 47 96 24t77 -95q21 -98 -39 -152q-21 -33 -111 -70q64 65 53 110t-53 66q-50 40 -41.5 71z" />
<glyph unicode="-" horiz-adv-x="705" d="M141 788l15 43l417 1l-7 -44h-425z" />
<glyph unicode="." horiz-adv-x="222" d="M26.5 144.5q20.5 64.5 112.5 56.5q82 -28 71 -103.5t-67 -85t-96.5 29t-20 103z" />
<glyph unicode="/" d="M68 18q10 22 57 54l925 1321l112 18l-986 -1382z" />
<glyph unicode="0" d="M144 922q-60 -590 93.5 -777t543 -126.5t295.5 910.5q-53 356 -258 428.5t-400 9t-274 -444.5zM277 957.5q92 442.5 515 284.5l-450 -1037q-157 310 -65 752.5zM454 148q291 724 428 1008q166 -590 25 -874.5t-453 -133.5z" />
<glyph unicode="1" horiz-adv-x="663" d="M83 4q2 30 18 94q0 2 190 9l3 1206q-69 -48 -78 -34t-17 83q58 20 118 84q33 -6 90 0q2 4 2 -663v-674q-9 2 208 -11l6 -92q-167 1 -540 -2z" />
<glyph unicode="2" d="M84 219q130 -3 300 66q366 165 460 415t-46 414q-117 126 -301 97.5t-295 -151.5l-38 175q72 71 297 142q510 97 616 -401q34 -368 -216.5 -568.5t-405.5 -240.5h708l3 -158h-591q-369 0 -474 3q-17 154 -17 207z" />
<glyph unicode="3" horiz-adv-x="1029" d="M86 162l98 129q401 -263 559 12.5t-156 413.5q-109 43 -241 -45q-49 59 -62 125q106 52 156.5 112.5t125.5 148t59 92.5q-4 1 -432 -10q0 -3 -9 148h741l-338 -413q96 -20 156 -58t114.5 -112.5t67.5 -204.5q12 -131 -32.5 -240t-133 -174t-216 -73.5t-281.5 61.5 q-155 69 -176 88z" />
<glyph unicode="4" d="M104 765l633 4q-4 -191 -52 -712q-2 -29 -34 -51q-1 4 207 0q-30 29 -25 84q3 29 42 679q82 6 244 0q2 -11 15 -17l9 131q-108 -5 -266 -2q-4 142 43 481q27 31 26 29q-58 -6 -198 -3q24 10 26 -54t-32 -455q-51 -6 -442 -10q0 -2 25.5 101t56.5 257t34 151q3 10 -201 6 q36 -12 46 -30q-2 -200 -94 -477q-28 -68 -63 -112z" />
<glyph unicode="5" d="M99 81q960 -245 1039 327.5t-688 527.5q4 0 -36 256q-12 10 580 23q-2 23 -9 189q-194 -10 -774 -18q40 -210 23 -675q769 238 726.5 -257t-785.5 -180q-27 -103 -76 -193z" />
<glyph unicode="6" d="M108 771.5q-68 -735.5 514.5 -758.5t513.5 459q-79 367 -427 389.5t-450 -187.5q24 278 146 440t601 60l-18 153q-812 180 -880 -555.5zM349 305q-86 254 95 367t431 -11q138 -103 116 -307t-304 -198t-338 149z" />
<glyph unicode="7" horiz-adv-x="1150" d="M64 1246q3 15 14 43l66 65q37 26 51 41q6 6 145 7.5t302.5 1t298.5 -2t134 -1.5q-2 0 -45 -94.5t-95 -212.5t-98 -226t-54 -135q-18 -56 -23 -74q46 -2 162 0q0 -2 -9 -74h-185q-49 -156 -77.5 -252t-52 -179t-23.5 -93v-51h-135q55 161 88 260t58.5 171t28.5 85 q3 24 19 59l-190 -1l17 74l192 3q62 176 101 288t74 203t53 119q-21 19 -269 38q-79 11 -322 0q-124 -2 -226 -62z" />
<glyph unicode="8" horiz-adv-x="816" d="M91.5 431q-33.5 -89 24.5 -249.5t282 -175.5q106 1 174.5 32.5t141.5 138.5t25 250t-219 262q10 5 103 103t106 143q1 52 -31.5 162.5t-89.5 196t-138.5 127t-219.5 -39.5q-136 -114 -158 -236t26 -238t164 -222q-157 -165 -190.5 -254zM231.5 1097.5 q-6.5 73.5 109.5 166.5q114 64 181 -23.5t85 -185t-203 -266.5q-93 93 -129.5 164t-43 144.5zM249 430q41 61 143 160q177 -93 210 -240t-160 -219q-78 -18 -163.5 75.5t-29.5 223.5z" />
<glyph unicode="9" d="M115.5 1042.5q-29.5 -146.5 25 -235.5t206.5 -123t415 99q86 56 84 44.5t-28 -255t-106 -367.5q-54 -54 -149 -77t-2 -86t276 65q70 62 106 248.5t66 395t76.5 422.5t45.5 214q-15 4 -59 9t-89 13l-30 -115q-30 4 -57 8q-80 68 -166.5 85t-195 7t-246.5 -92 q-143 -113 -172.5 -259.5zM279 1074q42 120 145 163.5t247 19t213 -120.5q-12 -72 -30 -136q-131 -120 -212 -147t-177 -35t-162 54t-24 202z" />
<glyph unicode=":" horiz-adv-x="297" d="M59.5 212.5q20.5 64.5 112.5 56.5q82 -28 71 -103.5t-67 -85t-96.5 29t-20 103zM62.5 1224.5q20.5 64.5 112.5 56.5q82 -28 71 -103.5t-67 -85t-96.5 29t-20 103z" />
<glyph unicode=";" horiz-adv-x="291" d="M39.5 111q8.5 31 18.5 46q34 47 96 24t77 -95q21 -98 -39 -152q-21 -33 -111 -70q64 65 53 110t-53 66q-50 40 -41.5 71zM68.5 1224.5q20.5 64.5 112.5 56.5q82 -28 71 -103.5t-67 -85t-96.5 29t-20 103z" />
<glyph unicode="&#x3c;" horiz-adv-x="1024" d="M66 647l811 -556q8 24 16.5 40t32 40.5t39.5 30.5q-22 1 -148 68t-237 142t-347 232l737 472q-21 -1 -61 53q-9 8 -21 53z" />
<glyph unicode="=" horiz-adv-x="997" d="M123 922q11 -1 125 0.5t248.5 -1t367.5 -0.5v-108q-44 -1 -288 0t-451 1q-1 36 -2 108zM126 488q44 -1 288 0t451 1q1 36 2 108q-11 -1 -125 0.5t-248.5 -1t-367.5 -0.5v-108z" />
<glyph unicode="&#x3e;" horiz-adv-x="1071" d="M80 1116q21 -1 61 53q9 8 21 53l822 -575l-811 -556q-8 24 -16.5 40t-32 40.5t-39.5 30.5q22 1 148 68t237 142t347 232z" />
<glyph unicode="?" horiz-adv-x="686" d="M66 1062q54 85 111 121t146.5 37.5t193.5 -72.5q71 -63 95 -151t-10 -173.5t-100 -130.5t-138 -56q2 -19 2 -91t3 -256h-81v406q17 -8 47 -2t62 18t54 33q74 66 81.5 187t-98.5 190t-217 7q-70 -52 -57 -116zM273 100q0 24 17.5 40.5t40.5 16.5q22 0 41.5 -16.5 t19.5 -40.5t-19.5 -41t-41.5 -17q-23 0 -40.5 17t-17.5 41z" />
<glyph unicode="@" d="M32 638q14 -328 337 -434t799 52l-9 132q-110 -116 -299 -159t-445 22.5t-284 360.5q27 276 194.5 381.5t351 119.5t319.5 -72.5t88.5 -323t-224.5 -215.5q-5 6 6 58l71 430l-89 -7q-1 -13 -7 -65q2 2 -36.5 34t-96 50t-171 -9.5t-211.5 -126.5q-76 -72 -100 -174 t27 -174t213 -75.5t273 64.5q42 28 42 19.5t-21 -97.5q6 -48 144 -24q322 104 296 426.5t-514 330.5q-632 -72 -654 -524zM360.5 608q-51.5 60 26.5 186q102 122 176.5 136t138 2.5t116.5 -79.5q-6 -56 -15.5 -133.5t-24.5 -87.5q-45 -37 -115.5 -61.5t-160.5 -23.5 t-141.5 61z" />
<glyph unicode="A" horiz-adv-x="1085" d="M57 6l359 1416h127l486 -1416h-171q-60 176 -165 500q-27 -1 -68 -1t-97 1t-101.5 1t-82.5 -1q-44 -152 -111 -502q-15 2 -176 2zM358 585l310 -1q-40 188 -167 608q-8 9 -13 9t-9 -9z" />
<glyph unicode="B" horiz-adv-x="1075" d="M89 9l3 1371q124 9 225 9t177 -9q153 -18 258.5 -83.5t120.5 -210.5q1 -23 1 -45q0 -117 -36 -171q-44 -64 -111 -101t-181 -41q-73 -2 -112 -2q-23 0 -35 1q0 -2 87 -7.5t219 -39.5t208 -126q76 -120 75 -261q0 -45 -7 -92q-32 -194 -527 -194q-210 2 -310 2h-55z M201 136q149 -12 251 -13q20 0 39 1q111 3 209 32q96 30 112 130q7 45 7 81q-1 45 -11 77q-20 58 -72.5 106.5t-163.5 84.5q-131 37 -300 37q-35 0 -71 -2v-534zM202 793q48 -2 102 -3q36 -1 96 -1q30 1 67 1q110 0 163.5 27.5t101.5 84.5q35 41 35 104q1 26 -5 55 q-20 102 -114 137.5t-186 46.5q-42 5 -99 5q-69 0 -160 -7z" />
<glyph unicode="C" horiz-adv-x="1057" d="M84 862q-24 -123 -24 -231q0 -145 44 -261q78 -202 222 -286q111 -65 238 -64q37 0 76 6q170 24 288 154q46 76 46 91q0 3 -2 3q-50 21 -123 42q-58 -102 -157 -146q-51 -23 -109 -22q-56 0 -119 20q-130 42 -188 252q-38 135 -37 286q-1 84 11 174q32 250 153 360 q73 67 163 67q59 0 125 -28q64 -23 181 -134l92 116q-184 150 -348 150q-20 0 -41 -2q-182 -21 -308.5 -141.5t-182.5 -405.5z" />
<glyph unicode="D" d="M96 15q234 0 408 -2h20q164 -1 318 31q164 34 252 223q60 180 61 346q0 247 -135 461q-176 282 -640 282q-126 0 -273 -21zM245 167q4 417 4 727q0 177 -1 319q48 2 93 2q283 0 405 -88q128 -117 180 -239q44 -103 44 -256q0 -29 -2 -61q-43 -340 -274 -391 q-132 -29 -260 -29q-96 0 -189 16z" />
<glyph unicode="E" horiz-adv-x="1110" d="M74 19l2 1314l886 -4v-166h-730l1 -425h513v-106h-513l-1 -451l776 1q3 -126 12 -163h-946z" />
<glyph unicode="F" horiz-adv-x="946" d="M71 10q38 126 38 1091v192h753v-149h-638v-348h393q-2 -39 -2.5 -62.5t-0.5 -63.5q0 -2 -380 -3l28 -659z" />
<glyph unicode="G" d="M72 438q46 -256 258 -348q149 -65 318 -65q70 0 144 11q241 38 241 348v20l30 1q-9 -79 -23 -111q30 4 90 4q-2 2 34 244l-398 2v-131h104q5 -35 5 -65q0 -62 -20 -104q-29 -61 -171 -86q-33 -5 -65 -5q-106 0 -203 62q-92 51 -140 227q-23 88 -23 191q0 105 24 226 q48 241 235 284q48 11 101 11q153 0 344 -93q22 -18 36 -29t38 -28l35 204q-217 93 -422 93q-84 0 -166 -16q-281 -54 -393 -384q-34 -116 -34 -248q0 -103 21 -215z" />
<glyph unicode="H" horiz-adv-x="959" d="M76 13l186 2l-22 602l465 -4l-14 -602h181l-37 1333l-145 1l17 -644l-466 -4q-3 69 -3 164q0 191 11 487q-43 -8 -114 -8q-26 0 -55 1z" />
<glyph unicode="I" horiz-adv-x="417" d="M56 1385h306q-43 -28 -47 -46q-3 -8 -3 -157v-54q0 -202 2.5 -439.5t6.5 -630.5q15 -44 34 -53q-27 3 -131 3q-8 0 -15 1q-93 0 -147 -6q30 4 39 49q6 17 7 451q1 217 0.5 427t-0.5 413z" />
<glyph unicode="J" horiz-adv-x="913" d="M49 386q-1 -20 -1 -38q0 -100 32 -159q39 -70 130 -123q78 -45 213 -45q21 0 43 1q177 12 262 116t101 280q14 153 14 366q0 34 -1 68q-2 258 -2 402l-237 -4q34 -15 65 -204q23 -132 23 -342q0 -89 -5 -193q-13 -346 -256 -381q-28 -3 -52 -3q-192 0 -199 239 q-19 -2 -37 -2q-16 0 -30 2q-33 2 -63 20z" />
<glyph unicode="K" horiz-adv-x="945" d="M36 1275l12 -1266h186l-6 510l427 -504q166 -3 247 -6q-162 178 -540 608q134 205 226 357.5t171 271.5h-205l-326 -513l-15 530q-102 4 -177 12z" />
<glyph unicode="L" horiz-adv-x="927" d="M54 12l801 -3q-8 11 -8 36q0 46 26 139l-653 -6l27 1050q-126 1 -178 15z" />
<glyph unicode="M" horiz-adv-x="1266" d="M42 9l181 1169q-15 15 -24 15q-5 0 21.5 0t59.5 0.5t91 2.5q-24 -12 -21 -18q0 -4 42 -71t92 -145.5t133 -207.5q81 131 129 210.5t88 147.5t38 72q-11 13 -21 12q-3 0 22.5 0t56.5 0.5t85 2.5q-26 -7 -21 -18q2 -6 38 -191.5t78.5 -404.5t105.5 -573l-178 3l-163 931 l-249 -373l-300 397q-33 -298 -45 -480.5t-44 -480.5q-46 2 -95 2t-100 -2z" />
<glyph unicode="N" horiz-adv-x="1210" d="M40 7q28 15 45 29q-3 7 -3 198q0 17 -1 40q0 225 5 958q0 14 -22 26h185q4 -26 24 -48q-6 5 268 -382t434 -588l-13 985q-25 24 -27 24t27 0t80 -1h35q36 0 76 1q-30 -10 -27 -21q-2 -7 -2.5 -199t-0.5 -419.5t1 -417t1 -187.5q-37 -1 -67 -1h-41q-26 1 -50 1h-32 q48 18 35 33q3 -4 4 -4q8 0 -741 1015q2 -342 4 -507.5t6 -338t10 -170.5q11 -9 33 -24z" />
<glyph unicode="O" horiz-adv-x="931" d="M36 636q8 -363 130 -488.5t306 -128.5h5q143 0 275 118q134 120 137 486q-15 216 -22.5 282.5t-78 183t-181.5 153.5q-61 15 -120 16q-39 0 -75 -7q-94 -16 -179 -83t-140 -193.5t-57 -338.5zM194 590q-1 27 -1 51q0 169 35 283q40 131 110.5 188.5t113.5 62.5 q22 2 46.5 2.5t52.5 -2.5q58 -21 99 -68.5t54.5 -86.5t27.5 -97q24 -119 24 -277q0 -35 -2 -73q-6 -204 -58 -340q-52 -135 -220 -137q-2 0 -3 -1q-165 0 -219 145q-54 146 -60 350z" />
<glyph unicode="P" horiz-adv-x="965" d="M51 3q31 3 80.5 3t117.5 -3q-8 166 -20 718q65 -48 258 -48q13 1 27 1q216 4 322 131q67 81 68 200q0 69 -22 149q-60 220 -292 233q-58 3 -109 3q-156 0 -264 -29l-3 69l-154 -1q-1 -1234 -9 -1426zM226 860q0 114 0.5 182.5t2.5 182.5q83 73 232 73q26 0 54 -2 q188 -16 221 -236q6 -39 6 -72q0 -157 -128 -196q-87 -27 -158 -27q-58 0 -104 17q-106 38 -126 78z" />
<glyph unicode="Q" horiz-adv-x="1117" d="M47 593q8 -289 150.5 -431.5t334.5 -147.5h21q179 0 293 81l81 -86l95 63l-93 75q99 91 125 299q6 49 6 101q0 171 -66 381q-86 274 -413 322h-15q-213 0 -338 -114q-130 -118 -158 -282q-24 -139 -24 -230q0 -16 1 -31zM192 808q24 384 341 384q25 0 51 -2 q291 -37 346 -346q35 -201 35 -323q0 -66 -11 -109q-29 -122 -91 -170l-95 141l-80 -100l95 -122q-120 -64 -224 -64q-42 0 -81 11q-136 35 -224 161q-67 98 -67 368q0 78 5 171z" />
<glyph unicode="R" horiz-adv-x="959" d="M56 1238q52 2 174 4h34q104 0 200 -10q112 -12 215.5 -69.5t129.5 -205.5q-4 -255 -164 -307q-126 -41 -247 -42q-32 0 -64 3q98 -100 241.5 -257t348.5 -338l-234 2l-469 515l8 -516q-15 3 -56.5 3t-110.5 -3zM213 1114q0 -256 2 -355q80 -12 168 -12q27 0 55 1 q215 13 215 158v12q-9 156 -173 184q-104 18 -183 18q-46 0 -84 -6z" />
<glyph unicode="S" horiz-adv-x="1141" d="M62 191q198 -115 392 -157q80 -17 161 -17q116 -1 234 35q199 60 237 252q14 72 15 133q0 101 -40 171q-63 112 -178 150t-325.5 38t-210.5 190q0 192 250 224q31 4 60 4q198 0 251 -199l94 266q-203 97 -383 97q-87 0 -169 -23q-250 -69 -288 -289q-8 -48 -9 -92 q0 -156 106 -256q123 -116 359 -116q24 0 50 1q17 1 32 1q243 0 243 -192q0 -200 -260 -221q-22 -2 -43 -2q-236 0 -434 211q-86 -126 -144 -209z" />
<glyph unicode="T" horiz-adv-x="1094" d="M38 1138q27 43 79 43h7q32 4 113 4q92 0 246 -5q-6 -762 -6.5 -948t-58.5 -225h295q-75 52 -75 184q0 14 1 30q-1 8 -1 51q0 172 13 910h38q96 0 197 4h21q110 0 133 -48l-2 175q-150 -7 -472.5 -7t-527.5 7v-175z" />
<glyph unicode="U" horiz-adv-x="1298" d="M49 1299q26 -35 26 -159q0 -65 -7 -154q-7 -83 -7 -174q0 -196 31 -434q44 -348 564 -364h31q489 0 523 518q34 534 41 763l-271 2q35 -138 35 -495q1 -72 -1 -154q-8 -473 -354 -472h-14q-364 3 -365 444q0 13 1 26q11 467 51 653h-284z" />
<glyph unicode="V" d="M56 1230h248q-34 -13 -28 -25q3 -7 57 -170t114 -348.5t167 -492.5l383 1011l-45 22q45 -1 107.5 -1t141.5 1q-52 -9 -69 -24q-43 -29 -87 -123t-138 -349q-93 -255 -171 -479q-64 -185 -65 -228q0 -9 3 -12q-41 -3 -119 -3h-41q-119 381 -199.5 606.5t-143 382 t-83.5 207.5q-21 18 -32 25z" />
<glyph unicode="W" d="M41 1200h2q37 0 125 -511q90 -525 117 -640q-6 -22 -14 -43h149q-8 2 -8 20q0 80 141 481l182 -461q-3 -25 -19 -37q-4 -2 128 -2h103q-23 12 -15 31q3 7 88.5 397.5t165.5 748.5q4 -1 35 19h-43q-93 0 -245 -3q32 -16 28 -14q-1 -6 -58.5 -343.5t-109.5 -655.5 q-10 -2 -217 518q2 7 2 8q0 11 -170 -466q-61 304 -83 439.5t-83 479.5q3 30 32 34q-30 1 -88.5 1t-144.5 -1z" />
<glyph unicode="X" d="M60 9h132q24 0 124 3q-41 17 -26 23q0 -2 302 486q164 -190 354 -498l-31 -17h271l-44 20l-478 605l311 530l66 23h-274q10 -6 35 -26q-2 -8 -6.5 -22.5t-17.5 -55.5t-27.5 -78.5t-35.5 -83.5t-41.5 -79t-45.5 -55.5t-48 -22.5q-1 -1 -111 181q-105 174 -105 189q0 2 5 8 t13 14t12 13l-251 3q28 -25 43 -46q24 -9 311 -472q-44 -95 -386 -611q-43 -31 -51 -31z" />
<glyph unicode="Y" horiz-adv-x="1011" d="M54 1216h36h44q13 1 31 1q24 0 57 -1q-3 -1 32.5 -81t78 -166t70.5 -133t76 -119q29 39 75.5 107.5t250.5 369.5q5 13 -26 24h190l-426 -625q0 -158 9 -568q15 -3 41 -23l-245 2q53 14 59 40q3 503 3 551q-126 206 -319 600q-17 14 -37 21z" />
<glyph unicode="Z" horiz-adv-x="1117" d="M69 1014q17 18 36 50.5t30 94.5h52q252 0 852 -8q-109 -145 -288.5 -483t-292.5 -533q63 -1 142 -1q131 0 305 3q13 -1 24 -1q73 0 95 33l8 -162l-906 -1l612 1012q-72 1 -170 1q-197 0 -499 -5z" />
<glyph unicode="[" horiz-adv-x="399" d="M92 1293q-4 5 8 -196t11 -442.5t-11 -645.5l205 3q10 63 15 75q2 5 -22.5 -6t-44 -11.5t-46.5 -0.5l12 1147l92 -6q-12 21 -20 72q-28 -4 -61 -3.5t-78.5 6t-59.5 8.5z" />
<glyph unicode="\" d="M68 1411l986 -1382l108 -11q-10 22 -57 54l-925 1321z" />
<glyph unicode="]" horiz-adv-x="380" d="M61 85q-2 5 22.5 -6t44 -11.5t46.5 -0.5l-12 1147l-92 -6q12 21 20 72q28 -4 61 -3.5t78.5 6t59.5 8.5q4 5 -8 -196t-11 -442.5t11 -645.5l-205 3q-10 63 -15 75z" />
<glyph unicode="^" horiz-adv-x="677" d="M64 1148l295 212q118 -112 259 -208q-4 12 -54 -44q-64 46 -209 155q-2 0 -230 -154q-27 27 -61 39z" />
<glyph unicode="_" horiz-adv-x="983" d="M71 4q14 -10 828 4q-19 30 3 83q14 1 -820 -8q4 -48 -11 -79z" />
<glyph unicode="`" horiz-adv-x="487" d="M73.5 1180.5q18.5 -27.5 46.5 -37.5q13 -6 50.5 -21.5t76.5 -32t101 -41.5q23 -5 38 -7.5t27.5 -3.5t14.5 2t-14.5 23t-28.5 32q-6 6 -33.5 24t-59 39t-58 40.5t-31.5 28.5q-6 8 -22.5 18.5t-36.5 16.5t-39 3.5t-29 -20.5q-21 -36 -2.5 -63.5z" />
<glyph unicode="a" horiz-adv-x="955" d="M43 223q47 205 177 293q130 87 289 86h1q160 0 204 -21q-23 175 -132 243q-54 34 -119 33q-66 -1 -144 -35q-154 -68 -243 -128l-9 175q27 35 237 101q80 25 153 25q118 1 218 -65q162 -106 181 -381q4 -333 42 -549h-20q-44 0 -117 3l1 -2q2 0 -27 130 q-223 -109 -340 -123q-45 -6 -89 -6q-72 0 -144 14q-116 24 -119 207zM222 155q18 -22 66 -22q124 0 449 149q-8 52 -11 163q-78 13 -220 18h-12q-135 1 -233 -111q-64 -72 -64 -130q0 -36 25 -67z" />
<glyph unicode="b" horiz-adv-x="1076" d="M54 9q64 -1 131 -1q134 0 280 3q220 4 371.5 41.5t187.5 238.5q13 111 12 204q0 124 -22 213q-40 156 -194 238q-90 48 -187 48q-69 0 -141 -24q-174 -58 -225 -148l3 626l-210 6zM264 181q-5 82 -5 151q0 89 8 158q8 110 74 198q124 144 260 144q55 0 111 -23 q188 -77 188 -328v-23q-9 -270 -271 -274q-210 -3 -317 -3h-48z" />
<glyph unicode="c" horiz-adv-x="964" d="M63 567q-18 -98 -18 -177q0 -128 48 -203q79 -122 233 -163q75 -20 152 -20q84 0 172 23q170 44 258 133l-127 116q-190 -93 -312 -93q-211 0 -225 271q-1 17 0 32q0 282 279 283q107 0 255 -42q1 11 19.5 39.5t30 46.5t33.5 50q-196 57 -324 58q-10 0 -20 -1 q-132 -5 -258 -68.5t-196 -284.5z" />
<glyph unicode="d" horiz-adv-x="1056" d="M48 495q-2 -32 -2 -63q0 -190 71 -285q82 -111 225 -135q56 -9 113 -9q88 0 177 22q148 37 229 88l-24 -101q13 2 57 2t118 -2l-56 1430h-142l32 -703q-261 107 -395 109h-7q-130 0 -248 -68q-122 -70 -148 -285zM244 509q66 186 242 186q13 0 27 -1q198 -15 336 -107 l15 -344q-245 -113 -393 -112q-97 0 -153 48q-95 84 -95 206q0 58 21 124z" />
<glyph unicode="e" horiz-adv-x="1113" d="M62 362q50 -151 182 -251t384 -100q220 15 315 89.5t124 240.5l-155 15q-40 -160 -261 -188q-40 -5 -76 -5q-163 0 -244 105q-77 99 -76 197q0 29 6 57l796 4q-33 217 -221 365q-121 95 -286 95q-91 0 -196 -29q-216 -92 -279 -268q-35 -98 -35 -188q0 -72 22 -139z M272 623q56 230 285 230h12q195 -1 303 -228z" />
<glyph unicode="f" horiz-adv-x="876" d="M35 615l244 -8l12 -584q27 -1 66.5 -1t91.5 1q-2 0 -8.5 98t-12.5 201q-4 76 -4 191q0 41 1 88l308 18l-6 137h-302q-15 135 -15 234v45q5 112 46 181q29 47 103 47q33 0 74 -9q93 -55 103 -59q12 0 98 101q-10 21 -174 80q-59 21 -114 21q-98 0 -183 -66 q-89 -109 -89 -220v-54v-51q0 -46 -0.5 -83t0 -79.5t0.5 -90.5h-220z" />
<glyph unicode="g" horiz-adv-x="1066" d="M38 -310q156 -114 330 -134q73 -8 146 -8q101 0 204 16q176 27 234 176q49 176 54 364t9 398q1 49 1 103q0 174 -10 390l-239 -5q4 -72 18 -126q-188 108 -319 114h-14q-124 0 -247 -100q-130 -106 -140 -410q9 -433 326 -433q3 0 7 1q323 4 450 194q0 -270 -65 -396 q-54 -104 -219 -104q-35 0 -76 5q-230 27 -310 149q-27 -40 -140 -194zM268 293q-42 96 -42 189q0 126 78 247q94 97 212 97q142 0 319 -142l9 -256q-97 -173 -279 -221q-69 -21 -124 -21q-123 0 -173 107z" />
<glyph unicode="h" horiz-adv-x="950" d="M52 1434q9 -303 9 -517q0 -107 -2 -191q-4 -131 -4 -248q-1 -108 3 -202q4 -134 5 -210q0 -35 -1 -59q1 1 17 1q40 0 178 -4l-1 661q127 95 200 113q32 8 63 7q42 0 85 -13q75 -23 99 -117q11 -102 13 -215q1 -56 1 -108q1 -53 -1 -101q-2 -96 -8 -225q52 3 194 3 q3 2 2.5 35.5t-2.5 97.5q-6 129 -12 283t-15.5 245.5t-48.5 161.5q-48 52 -114 82q-54 25 -131 24q-18 0 -37 -1q-102 -7 -152 -23t-142 -50v150q-2 32 -2 133v12q0 101 8 290z" />
<glyph unicode="i" horiz-adv-x="301" d="M39 18h190q-17 24 -17 46q0 10 6 156.5t15 318t22 455.5l-175 -17q23 -12 23 -46q-20 -284 -25.5 -449.5t-11 -303.5t-7.5 -140zM86 1139q31 -45 77 -45q7 0 15 1q56 10 70 76q-6 45 -21.5 65t-51.5 25q-5 0 -10 1q-39 0 -67 -30q-20 -20 -19 -51q0 -19 7 -42z" />
<glyph unicode="j" horiz-adv-x="973" d="M38 -154q52 29 152 77q33 -94 182 -165q62 -30 123 -30q81 0 157 56q103 74 103 372q0 89 -9 198q-40 473 -88 559l229 11q27 -295 35 -512q2 -81 2 -160q0 -131 -8 -254q-12 -197 -93 -285q-128 -108 -259 -126q-37 -5 -76 -5q-93 0 -190 31q-136 44 -260 233zM630 1199 q-3 -13 -3 -27q0 -19 8 -38q-1 -3 -1 -5q0 -27 64 -47q23 -8 42 -8q39 0 63 30q35 43 35 65q0 49 -28 75q-26 22 -59 25q-17 1 -33 1t-30 -1q-25 -19 -36.5 -28t-21.5 -42z" />
<glyph unicode="k" horiz-adv-x="709" d="M44 13h167l-14 495q299 -498 299 -491q2 0 50 -2t129 -2l-363 561q30 -4 57 -4q89 0 145 40q73 52 74 124v9q0 71 -32 113q-34 44 -94 70q-38 16 -86 17q-29 -1 -62 -7q-86 -16 -124 -53q0 86 12 433l-158 -25v-1278zM196 752q30 98 125 110q15 2 29 3q72 -1 106 -55 q17 -26 17 -50q-1 -35 -35 -67q-37 -34 -124 -34q-49 0 -115 11z" />
<glyph unicode="l" horiz-adv-x="315" d="M30 1249q46 12 74 18q27 7 65 21q27 10 35 10q3 0 3 -2q0 -7 -4.5 -210.5t-8.5 -409.5q-1 -72 -1 -142q1 -129 5 -250q6 -179 27 -180q1 0 2 1q44 13 53.5 23.5t9.5 7.5q0 -2 -2 -17t-3.5 -32.5t-3.5 -44.5q-48 -23 -78 -29q-13 -3 -28 -3q-19 0 -43 5q-42 8 -47 54 q-6 45 -9 235t-4 402v134q0 127 1 226q2 149 2 156q0 13 -45 27z" />
<glyph unicode="m" horiz-adv-x="1168" d="M32 896h150l13 -78q63 98 193 98h16q142 -6 196 -120q76 126 200 133q10 1 21 0q112 1 202 -69q99 -76 109 -391q7 -209 7 -344q0 -67 -2 -116l-189 1q41 224 52 456q1 25 1 47q0 191 -82 247q-44 30 -90 30q-49 0 -99 -34q-82 -57 -81 -396q0 -63 2 -135h-103 q4 77 4 143q0 338 -94 388q-36 19 -70 18q-70 0 -130 -84q-56 -79 -56 -336q0 -144 17 -345h-184q3 233 9 418q1 45 1 96q0 158 -13 373z" />
<glyph unicode="n" horiz-adv-x="1057" d="M36 6h134l68 3l18 638q152 99 248 129q50 15 98 15q43 0 84 -13q86 -27 104 -181q35 -310 35 -591l199 3q-12 258 -25.5 412.5t-42 291.5t-80.5 162q-53 24 -126 39q-52 11 -110 11q-23 0 -47 -2q-84 -6 -172 -40t-162 -82v175q-65 -10 -121 -10q-47 0 -87 7 q-1 -88 -1 -167q0 -177 3.5 -307t3.5 -241q0 -49 -1 -94q-1 -73 -20 -158z" />
<glyph unicode="o" horiz-adv-x="1080" d="M43 540q-3 -38 -3 -73q0 -243 146 -349t402 -105q38 0 78 2q312 18 365 332q11 67 11 128q0 224 -152 364q-139 127 -350 128q-84 0 -180 -21q-293 -106 -317 -406zM198 472q-3 26 -3 50q0 229 234 338q60 13 114 13q145 0 245 -93q102 -94 102 -250q0 -56 -12 -118 q-45 -225 -313 -224h-38q-301 16 -329 284z" />
<glyph unicode="p" horiz-adv-x="1043" d="M39 -471q69 15 137 15q34 0 67 -4l-15 538q96 -53 261 -53q79 0 173 12q334 67 345 384v25q0 295 -249 374q-116 37 -233 37q-143 0 -286 -55v81l-197 -11q1 -152 1 -371q0 -383 -4 -972zM228 211l11 476q124 61 258 61q68 0 139 -16q180 -39 180 -269q0 -40 -6 -87 q-25 -211 -287 -211q-122 0 -295 46z" />
<glyph unicode="q" horiz-adv-x="1117" d="M36 459q3 -177 65.5 -288.5t256.5 -135.5q87 -11 186 -11q123 0 265 17q-1 -24 -1 -53q0 -91 10 -220q13 -169 169 -232l100 189q-22 -4 -41 -4q-86 0 -92 84q-4 51 -4 94t4 79q7 70 18 248q11 181 18.5 328t13 226.5t10.5 132.5l-223 41q4 -29 4 -65q0 -14 -1 -29 q-156 49 -276 54q-15 1 -29 1q-106 0 -207 -35q-116 -41 -182 -142q-64 -98 -64 -264v-15zM192 433v8q0 205 107 282q89 64 193 64q23 0 48 -3q131 -18 257 -66v-35q0 -88 3 -251q5 -199 5 -202.5t-295 -11.5h-20q-277 0 -298 215z" />
<glyph unicode="r" horiz-adv-x="909" d="M33 7q13 1 60 1t128 -1l-5 574q2 57 80 111.5t172 72.5q23 4 46 4q70 1 136 -41q88 -56 107 -132l124 97q-119 171 -275 189q-43 5 -82 4q-102 0 -174 -35q-99 -49 -141 -113q9 76 12 111q-2 0 -57 -3q-16 -1 -33 -1q-39 0 -81 5q-2 -100 -2 -184q0 -134 5 -228 q4 -71 4 -136q0 -74 -5 -140q-9 -124 -19 -155z" />
<glyph unicode="s" horiz-adv-x="937" d="M29 123q137 -73 243 -93q104 -21 254 -22h4q147 0 265 77q112 73 112 205q-1 8 -1 16q-8 144 -88 208q-70 56 -226 56h-48q-26 -1 -49 -2q-150 0 -184 54q-33 51 -34 99q0 9 2 19q8 58 80 88q49 21 113 21q28 0 62 -4q104 -14 308 -85l41 140q-185 61 -353 67 q-17 1 -34 0q-146 0 -240 -47q-105 -53 -140 -158q-7 -37 -7 -70q0 -217 301 -232h36q98 0 182 -14q98 -16 112 -130q-7 -154 -232 -154q-1 0 -2 -1q-224 0 -395 132q-11 -96 -82 -170z" />
<glyph unicode="t" horiz-adv-x="635" d="M32 852q-1 -7 0 -11q0 -5 1 -5q86 -2 137 -2.5t98 -1.5q0 -242 1 -388.5t3.5 -269.5t7.5 -128q4 -6 16 -11.5t24.5 -8.5t71.5 -6l51 74q-13 -2 -20.5 8.5t-13 37.5t-5.5 82q0 54 -3.5 156t-6.5 203q-1 30 -1 65q0 81 5 184l193 9l12 107l-205 -3q-2 0 -2 13q0 58 44 375 q-22 -10 -38 -16q-15 -5 -30 -9q-6 -1 -16 -2q-19 0 -53 4q-7 2 -12.5 -54.5t-8.5 -125t-15 -185.5l-222 -3q-5 -33 -8 -52.5t-5 -35.5z" />
<glyph unicode="u" horiz-adv-x="1075" d="M46 530q8 -162 41 -301.5t113 -175.5q66 -41 217 -41h21q166 3 275.5 22t172.5 186v-5q0 -27 8 -188q43 -3 70 -6t72 -6l-32 961q-17 -24 -98 -24t-104 12q7 -214 10 -347q1 -50 1 -97q0 -78 -3 -150q-5 -114 -110 -164q-104 -48 -185 -52q-24 -1 -47 -1q-56 -1 -108 5 q-74 8 -95 70q-21 60 -27 181q-5 97 -5 194q1 25 1 49q2 122 11 303q-13 -6 -79.5 -6t-113.5 6q-8 -167 -8 -293q-1 -73 2 -132z" />
<glyph unicode="v" horiz-adv-x="1099" d="M36 961l44 -24q133 -282 218.5 -457.5t157.5 -321.5q71 -144 72 -143q27 0 94 119t120.5 234t53.5 119q100 177 269 471l-154 1l35 -16l-388 -682l-324 703q-82 -3 -159 -3h-39z" />
<glyph unicode="w" horiz-adv-x="1212" d="M38 985q16 0 60 -31q3 -9 34.5 -167.5t69 -327t106.5 -442.5q11 -7 21 -7q17 0 32 20q131 214 264 410q183 -266 287 -422q15 -13 26 -13q9 0 16 8q69 269 111.5 438t117.5 532q-34 2 -120 2h-62h1q7 0 40 -15q-2 -8 -29 -147.5t-53.5 -278t-52 -247t-25.5 -105.5 q0 2 -266 451l-241 -438q-62 256 -83 392t-73 386q-19 -1 -45 -1q-53 0 -136 3z" />
<glyph unicode="x" horiz-adv-x="1043" d="M42 973q16 -8 76 -26q28 -28 128 -182t198 -288l-310 -430l-65 -35h220l247 361q159 -181 299 -332l-45 -32h209l-406 442l373 517l-232 2l23 -20q-123 -208 -254 -390l-287 411q-49 2 -123 2h-51z" />
<glyph unicode="y" horiz-adv-x="1080" d="M51 -121q-2 2 -2.5 2t-0.5 -1q0 -11 32 -96q44 -112 182 -200q92 -58 245 -58q77 0 169 15q277 44 318 315q38 244 38 455v46q-5 231 -15 626q-107 -10 -137 -11h-4q-29 0 -82 13q43 -75 43 -297q0 -80 -6 -180q-21 -369 -311 -369h-9q-299 6 -299 366.5t38 469.5 q1 0 -163 -10q-28 -195 -28 -351q0 -201 47 -338q83 -243 390 -262q23 -1 45 -1q267 0 333 215q1 -16 1 -35q0 -83 -17 -235q-22 -188 -180 -254q-80 -34 -159 -34q-75 0 -150 31q-143 60 -143 225q0 11 1 22q-54 -18 -176 -69z" />
<glyph unicode="z" horiz-adv-x="1141" d="M42 9q20 59 29 69q467 513 769 786q-244 1 -538 4q-108 -13 -138 -47l45 107q5 45 3 45t844 -7l50 -9q-205 -110 -827 -814q235 1 361.5 6.5t222.5 11t126 9.5q33 7 92 28q-38 -57 -51 -187q-150 -1 -270 -1q-118 0 -208 1q-59 1 -136 1q-153 0 -374 -3z" />
<glyph unicode="{" horiz-adv-x="468" d="M36 718l116 -80q33 -63 40 -360t174 -263q39 4 53 35q-167 -48 -154.5 268.5t-91.5 387.5q-9 2 41.5 28t44.5 202.5t10.5 301t102.5 148.5q-29 23 -99 2.5t-86.5 -235.5t-25.5 -355z" />
<glyph unicode="|" horiz-adv-x="288" d="M70 12q110 0 151 -3q-3 0 -10.5 37t-10.5 427t-3 645t24 309h-42h-89q12 -50 6.5 -314.5t-1.5 -653t-25 -447.5z" />
<glyph unicode="}" horiz-adv-x="473" d="M40 65q167 -48 154.5 268.5t91.5 387.5q9 2 -41.5 28t-44.5 202.5t-10.5 301t-102.5 148.5q29 23 99 2.5t86.5 -235.5t25.5 -355l125 -80l-116 -80q-33 -63 -40 -360t-174 -263q-39 4 -53 35z" />
<glyph unicode="~" horiz-adv-x="843" d="M46 1184q148 127 369 4t334 82q24 -74 47 -122q-133 -163 -361.5 -53t-326.5 -6z" />
<glyph unicode="&#xaa;" horiz-adv-x="955" d="M43 223q47 205 177 293q130 87 289 86h1q160 0 204 -21q-23 175 -132 243q-54 34 -119 33q-66 -1 -144 -35q-154 -68 -243 -128l-9 175q27 35 237 101q80 25 153 25q118 1 218 -65q162 -106 181 -381q4 -333 42 -549h-20q-44 0 -117 3l1 -2q2 0 -27 130 q-223 -109 -340 -123q-45 -6 -89 -6q-72 0 -144 14q-116 24 -119 207zM222 155q18 -22 66 -22q124 0 449 149q-8 52 -11 163q-78 13 -220 18h-12q-135 1 -233 -111q-64 -72 -64 -130q0 -36 25 -67z" />
<glyph unicode="&#xad;" horiz-adv-x="705" d="M141 788l15 43l417 1l-7 -44h-425z" />
<glyph unicode="&#xb2;" d="M84 219q130 -3 300 66q366 165 460 415t-46 414q-117 126 -301 97.5t-295 -151.5l-38 175q72 71 297 142q510 97 616 -401q34 -368 -216.5 -568.5t-405.5 -240.5h708l3 -158h-591q-369 0 -474 3q-17 154 -17 207z" />
<glyph unicode="&#xb3;" horiz-adv-x="1029" d="M86 162l98 129q401 -263 559 12.5t-156 413.5q-109 43 -241 -45q-49 59 -62 125q106 52 156.5 112.5t125.5 148t59 92.5q-4 1 -432 -10q0 -3 -9 148h741l-338 -413q96 -20 156 -58t114.5 -112.5t67.5 -204.5q12 -131 -32.5 -240t-133 -174t-216 -73.5t-281.5 61.5 q-155 69 -176 88z" />
<glyph unicode="&#xb9;" horiz-adv-x="663" d="M83 4q2 30 18 94q0 2 190 9l3 1206q-69 -48 -78 -34t-17 83q58 20 118 84q33 -6 90 0q2 4 2 -663v-674q-9 2 208 -11l6 -92q-167 1 -540 -2z" />
<glyph unicode="&#xba;" horiz-adv-x="1080" d="M43 540q-3 -38 -3 -73q0 -243 146 -349t402 -105q38 0 78 2q312 18 365 332q11 67 11 128q0 224 -152 364q-139 127 -350 128q-84 0 -180 -21q-293 -106 -317 -406zM198 472q-3 26 -3 50q0 229 234 338q60 13 114 13q145 0 245 -93q102 -94 102 -250q0 -56 -12 -118 q-45 -225 -313 -224h-38q-301 16 -329 284z" />
<glyph unicode="&#xc0;" horiz-adv-x="1085" d="M145.5 1687.5q18.5 -27.5 46.5 -37.5q13 -6 50.5 -21.5t76.5 -32t101 -41.5q23 -5 38 -7.5t27.5 -3.5t14.5 2t-14.5 23t-28.5 32q-6 6 -33.5 24t-59 39t-58 40.5t-31.5 28.5q-6 8 -22.5 18.5t-36.5 16.5t-39 3.5t-29 -20.5q-21 -36 -2.5 -63.5zM57 6l359 1416h127 l486 -1416h-171q-60 176 -165 500q-27 -1 -68 -1t-97 1t-101.5 1t-82.5 -1q-44 -152 -111 -502q-15 2 -176 2zM358 585l310 -1q-40 188 -167 608q-8 9 -13 9t-9 -9z" />
<glyph unicode="&#xc2;" horiz-adv-x="1085" d="M202 1584l295 212q118 -112 259 -208q-4 12 -54 -44q-64 46 -209 155q-2 0 -230 -154q-27 27 -61 39zM57 6l359 1416h127l486 -1416h-171q-60 176 -165 500q-27 -1 -68 -1t-97 1t-101.5 1t-82.5 -1q-44 -152 -111 -502q-15 2 -176 2zM358 585l310 -1q-40 188 -167 608 q-8 9 -13 9t-9 -9z" />
<glyph unicode="&#xc3;" horiz-adv-x="1085" d="M104 1677q148 127 369 4t334 82q24 -74 47 -122q-133 -163 -361.5 -53t-326.5 -6zM57 6l359 1416h127l486 -1416h-171q-60 176 -165 500q-27 -1 -68 -1t-97 1t-101.5 1t-82.5 -1q-44 -152 -111 -502q-15 2 -176 2zM358 585l310 -1q-40 188 -167 608q-8 9 -13 9t-9 -9z " />
<glyph unicode="&#xc8;" horiz-adv-x="1110" d="M-257.5 1598.5q18.5 -27.5 46.5 -37.5q13 -6 50.5 -21.5t76.5 -32t101 -41.5q23 -5 38 -7.5t27.5 -3.5t14.5 2t-14.5 23t-28.5 32q-6 6 -33.5 24t-59 39t-58 40.5t-31.5 28.5q-6 8 -22.5 18.5t-36.5 16.5t-39 3.5t-29 -20.5q-21 -36 -2.5 -63.5zM74 19l2 1314l886 -4 v-166h-730l1 -425h513v-106h-513l-1 -451l776 1q3 -126 12 -163h-946z" />
<glyph unicode="&#xca;" horiz-adv-x="1110" d="M-201 1495l295 212q118 -112 259 -208q-4 12 -54 -44q-64 46 -209 155q-2 0 -230 -154q-27 27 -61 39zM74 19l2 1314l886 -4v-166h-730l1 -425h513v-106h-513l-1 -451l776 1q3 -126 12 -163h-946z" />
<glyph unicode="&#xcc;" horiz-adv-x="417" d="M-124.5 1650.5q18.5 -27.5 46.5 -37.5q13 -6 50.5 -21.5t76.5 -32t101 -41.5q23 -5 38 -7.5t27.5 -3.5t14.5 2t-14.5 23t-28.5 32q-6 6 -33.5 24t-59 39t-58 40.5t-31.5 28.5q-6 8 -22.5 18.5t-36.5 16.5t-39 3.5t-29 -20.5q-21 -36 -2.5 -63.5zM56 1385h306 q-43 -28 -47 -46q-3 -8 -3 -157v-54q0 -202 2.5 -439.5t6.5 -630.5q15 -44 34 -53q-27 3 -131 3q-8 0 -15 1q-93 0 -147 -6q30 4 39 49q6 17 7 451q1 217 0.5 427t-0.5 413z" />
<glyph unicode="&#xce;" horiz-adv-x="417" d="M-68 1547l295 212q118 -112 259 -208q-4 12 -54 -44q-64 46 -209 155q-2 0 -230 -154q-27 27 -61 39zM56 1385h306q-43 -28 -47 -46q-3 -8 -3 -157v-54q0 -202 2.5 -439.5t6.5 -630.5q15 -44 34 -53q-27 3 -131 3q-8 0 -15 1q-93 0 -147 -6q30 4 39 49q6 17 7 451 q1 217 0.5 427t-0.5 413z" />
<glyph unicode="&#xd1;" horiz-adv-x="1210" d="M-218 1513q148 127 369 4t334 82q24 -74 47 -122q-133 -163 -361.5 -53t-326.5 -6zM40 7q28 15 45 29q-3 7 -3 198q0 17 -1 40q0 225 5 958q0 14 -22 26h185q4 -26 24 -48q-6 5 268 -382t434 -588l-13 985q-25 24 -27 24t27 0t80 -1h35q36 0 76 1q-30 -10 -27 -21 q-2 -7 -2.5 -199t-0.5 -419.5t1 -417t1 -187.5q-37 -1 -67 -1h-41q-26 1 -50 1h-32q48 18 35 33q3 -4 4 -4q8 0 -741 1015q2 -342 4 -507.5t6 -338t10 -170.5q11 -9 33 -24z" />
<glyph unicode="&#xd2;" horiz-adv-x="931" d="M153.5 1522.5q18.5 -27.5 46.5 -37.5q13 -6 50.5 -21.5t76.5 -32t101 -41.5q23 -5 38 -7.5t27.5 -3.5t14.5 2t-14.5 23t-28.5 32q-6 6 -33.5 24t-59 39t-58 40.5t-31.5 28.5q-6 8 -22.5 18.5t-36.5 16.5t-39 3.5t-29 -20.5q-21 -36 -2.5 -63.5zM36 636q8 -363 130 -488.5 t306 -128.5h5q143 0 275 118q134 120 137 486q-15 216 -22.5 282.5t-78 183t-181.5 153.5q-61 15 -120 16q-39 0 -75 -7q-94 -16 -179 -83t-140 -193.5t-57 -338.5zM194 590q-1 27 -1 51q0 169 35 283q40 131 110.5 188.5t113.5 62.5q22 2 46.5 2.5t52.5 -2.5 q58 -21 99 -68.5t54.5 -86.5t27.5 -97q24 -119 24 -277q0 -35 -2 -73q-6 -204 -58 -340q-52 -135 -220 -137q-2 0 -3 -1q-165 0 -219 145q-54 146 -60 350z" />
<glyph unicode="&#xd4;" horiz-adv-x="931" d="M210 1419l295 212q118 -112 259 -208q-4 12 -54 -44q-64 46 -209 155q-2 0 -230 -154q-27 27 -61 39zM36 636q8 -363 130 -488.5t306 -128.5h5q143 0 275 118q134 120 137 486q-15 216 -22.5 282.5t-78 183t-181.5 153.5q-61 15 -120 16q-39 0 -75 -7q-94 -16 -179 -83 t-140 -193.5t-57 -338.5zM194 590q-1 27 -1 51q0 169 35 283q40 131 110.5 188.5t113.5 62.5q22 2 46.5 2.5t52.5 -2.5q58 -21 99 -68.5t54.5 -86.5t27.5 -97q24 -119 24 -277q0 -35 -2 -73q-6 -204 -58 -340q-52 -135 -220 -137q-2 0 -3 -1q-165 0 -219 145 q-54 146 -60 350z" />
<glyph unicode="&#xd5;" horiz-adv-x="931" d="M112 1513q148 127 369 4t334 82q24 -74 47 -122q-133 -163 -361.5 -53t-326.5 -6zM36 636q8 -363 130 -488.5t306 -128.5h5q143 0 275 118q134 120 137 486q-15 216 -22.5 282.5t-78 183t-181.5 153.5q-61 15 -120 16q-39 0 -75 -7q-94 -16 -179 -83t-140 -193.5 t-57 -338.5zM194 590q-1 27 -1 51q0 169 35 283q40 131 110.5 188.5t113.5 62.5q22 2 46.5 2.5t52.5 -2.5q58 -21 99 -68.5t54.5 -86.5t27.5 -97q24 -119 24 -277q0 -35 -2 -73q-6 -204 -58 -340q-52 -135 -220 -137q-2 0 -3 -1q-165 0 -219 145q-54 146 -60 350z" />
<glyph unicode="&#xd9;" horiz-adv-x="1298" d="M-142.5 1564.5q18.5 -27.5 46.5 -37.5q13 -6 50.5 -21.5t76.5 -32t101 -41.5q23 -5 38 -7.5t27.5 -3.5t14.5 2t-14.5 23t-28.5 32q-6 6 -33.5 24t-59 39t-58 40.5t-31.5 28.5q-6 8 -22.5 18.5t-36.5 16.5t-39 3.5t-29 -20.5q-21 -36 -2.5 -63.5zM49 1299q26 -35 26 -159 q0 -65 -7 -154q-7 -83 -7 -174q0 -196 31 -434q44 -348 564 -364h31q489 0 523 518q34 534 41 763l-271 2q35 -138 35 -495q1 -72 -1 -154q-8 -473 -354 -472h-14q-364 3 -365 444q0 13 1 26q11 467 51 653h-284z" />
<glyph unicode="&#xdb;" horiz-adv-x="1298" d="M-86 1461l295 212q118 -112 259 -208q-4 12 -54 -44q-64 46 -209 155q-2 0 -230 -154q-27 27 -61 39zM49 1299q26 -35 26 -159q0 -65 -7 -154q-7 -83 -7 -174q0 -196 31 -434q44 -348 564 -364h31q489 0 523 518q34 534 41 763l-271 2q35 -138 35 -495q1 -72 -1 -154 q-8 -473 -354 -472h-14q-364 3 -365 444q0 13 1 26q11 467 51 653h-284z" />
<glyph unicode="&#xe0;" horiz-adv-x="955" d="M123.5 1260.5q18.5 -27.5 46.5 -37.5q13 -6 50.5 -21.5t76.5 -32t101 -41.5q23 -5 38 -7.5t27.5 -3.5t14.5 2t-14.5 23t-28.5 32q-6 6 -33.5 24t-59 39t-58 40.5t-31.5 28.5q-6 8 -22.5 18.5t-36.5 16.5t-39 3.5t-29 -20.5q-21 -36 -2.5 -63.5zM43 223q47 205 177 293 q130 87 289 86h1q160 0 204 -21q-23 175 -132 243q-54 34 -119 33q-66 -1 -144 -35q-154 -68 -243 -128l-9 175q27 35 237 101q80 25 153 25q118 1 218 -65q162 -106 181 -381q4 -333 42 -549h-20q-44 0 -117 3l1 -2q2 0 -27 130q-223 -109 -340 -123q-45 -6 -89 -6 q-72 0 -144 14q-116 24 -119 207zM222 155q18 -22 66 -22q124 0 449 149q-8 52 -11 163q-78 13 -220 18h-12q-135 1 -233 -111q-64 -72 -64 -130q0 -36 25 -67z" />
<glyph unicode="&#xe2;" horiz-adv-x="955" d="M180 1157l295 212q118 -112 259 -208q-4 12 -54 -44q-64 46 -209 155q-2 0 -230 -154q-27 27 -61 39zM43 223q47 205 177 293q130 87 289 86h1q160 0 204 -21q-23 175 -132 243q-54 34 -119 33q-66 -1 -144 -35q-154 -68 -243 -128l-9 175q27 35 237 101q80 25 153 25 q118 1 218 -65q162 -106 181 -381q4 -333 42 -549h-20q-44 0 -117 3l1 -2q2 0 -27 130q-223 -109 -340 -123q-45 -6 -89 -6q-72 0 -144 14q-116 24 -119 207zM222 155q18 -22 66 -22q124 0 449 149q-8 52 -11 163q-78 13 -220 18h-12q-135 1 -233 -111q-64 -72 -64 -130 q0 -36 25 -67z" />
<glyph unicode="&#xe3;" horiz-adv-x="955" d="M82 1250q148 127 369 4t334 82q24 -74 47 -122q-133 -163 -361.5 -53t-326.5 -6zM43 223q47 205 177 293q130 87 289 86h1q160 0 204 -21q-23 175 -132 243q-54 34 -119 33q-66 -1 -144 -35q-154 -68 -243 -128l-9 175q27 35 237 101q80 25 153 25q118 1 218 -65 q162 -106 181 -381q4 -333 42 -549h-20q-44 0 -117 3l1 -2q2 0 -27 130q-223 -109 -340 -123q-45 -6 -89 -6q-72 0 -144 14q-116 24 -119 207zM222 155q18 -22 66 -22q124 0 449 149q-8 52 -11 163q-78 13 -220 18h-12q-135 1 -233 -111q-64 -72 -64 -130q0 -36 25 -67z" />
<glyph unicode="&#xe8;" horiz-adv-x="1113" d="M216.5 1251.5q18.5 -27.5 46.5 -37.5q13 -6 50.5 -21.5t76.5 -32t101 -41.5q23 -5 38 -7.5t27.5 -3.5t14.5 2t-14.5 23t-28.5 32q-6 6 -33.5 24t-59 39t-58 40.5t-31.5 28.5q-6 8 -22.5 18.5t-36.5 16.5t-39 3.5t-29 -20.5q-21 -36 -2.5 -63.5zM62 362q50 -151 182 -251 t384 -100q220 15 315 89.5t124 240.5l-155 15q-40 -160 -261 -188q-40 -5 -76 -5q-163 0 -244 105q-77 99 -76 197q0 29 6 57l796 4q-33 217 -221 365q-121 95 -286 95q-91 0 -196 -29q-216 -92 -279 -268q-35 -98 -35 -188q0 -72 22 -139zM272 623q56 230 285 230h12 q195 -1 303 -228z" />
<glyph unicode="&#xea;" horiz-adv-x="1113" d="M273 1148l295 212q118 -112 259 -208q-4 12 -54 -44q-64 46 -209 155q-2 0 -230 -154q-27 27 -61 39zM62 362q50 -151 182 -251t384 -100q220 15 315 89.5t124 240.5l-155 15q-40 -160 -261 -188q-40 -5 -76 -5q-163 0 -244 105q-77 99 -76 197q0 29 6 57l796 4 q-33 217 -221 365q-121 95 -286 95q-91 0 -196 -29q-216 -92 -279 -268q-35 -98 -35 -188q0 -72 22 -139zM272 623q56 230 285 230h12q195 -1 303 -228z" />
<glyph unicode="&#xec;" horiz-adv-x="301" d="M-168.5 1527.5q18.5 -27.5 46.5 -37.5q13 -6 50.5 -21.5t76.5 -32t101 -41.5q23 -5 38 -7.5t27.5 -3.5t14.5 2t-14.5 23t-28.5 32q-6 6 -33.5 24t-59 39t-58 40.5t-31.5 28.5q-6 8 -22.5 18.5t-36.5 16.5t-39 3.5t-29 -20.5q-21 -36 -2.5 -63.5zM39 18h190q-17 24 -17 46 q0 10 6 156.5t15 318t22 455.5l-175 -17q23 -12 23 -46q-20 -284 -25.5 -449.5t-11 -303.5t-7.5 -140zM86 1139q31 -45 77 -45q7 0 15 1q56 10 70 76q-6 45 -21.5 65t-51.5 25q-5 0 -10 1q-39 0 -67 -30q-20 -20 -19 -51q0 -19 7 -42z" />
<glyph unicode="&#xee;" horiz-adv-x="301" d="M-112 1423l295 212q118 -112 259 -208q-4 12 -54 -44q-64 46 -209 155q-2 0 -230 -154q-27 27 -61 39zM39 18h190q-17 24 -17 46q0 10 6 156.5t15 318t22 455.5l-175 -17q23 -12 23 -46q-20 -284 -25.5 -449.5t-11 -303.5t-7.5 -140zM86 1139q31 -45 77 -45q7 0 15 1 q56 10 70 76q-6 45 -21.5 65t-51.5 25q-5 0 -10 1q-39 0 -67 -30q-20 -20 -19 -51q0 -19 7 -42z" />
<glyph unicode="&#xf1;" horiz-adv-x="1057" d="M155 1231q148 127 369 4t334 82q24 -74 47 -122q-133 -163 -361.5 -53t-326.5 -6zM36 6h134l68 3l18 638q152 99 248 129q50 15 98 15q43 0 84 -13q86 -27 104 -181q35 -310 35 -591l199 3q-12 258 -25.5 412.5t-42 291.5t-80.5 162q-53 24 -126 39q-52 11 -110 11 q-23 0 -47 -2q-84 -6 -172 -40t-162 -82v175q-65 -10 -121 -10q-47 0 -87 7q-1 -88 -1 -167q0 -177 3.5 -307t3.5 -241q0 -49 -1 -94q-1 -73 -20 -158z" />
<glyph unicode="&#xf2;" horiz-adv-x="1080" d="M206.5 1231.5q18.5 -27.5 46.5 -37.5q13 -6 50.5 -21.5t76.5 -32t101 -41.5q23 -5 38 -7.5t27.5 -3.5t14.5 2t-14.5 23t-28.5 32q-6 6 -33.5 24t-59 39t-58 40.5t-31.5 28.5q-6 8 -22.5 18.5t-36.5 16.5t-39 3.5t-29 -20.5q-21 -36 -2.5 -63.5zM43 540q-3 -38 -3 -73 q0 -243 146 -349t402 -105q38 0 78 2q312 18 365 332q11 67 11 128q0 224 -152 364q-139 127 -350 128q-84 0 -180 -21q-293 -106 -317 -406zM198 472q-3 26 -3 50q0 229 234 338q60 13 114 13q145 0 245 -93q102 -94 102 -250q0 -56 -12 -118q-45 -225 -313 -224h-38 q-301 16 -329 284z" />
<glyph unicode="&#xf4;" horiz-adv-x="1080" d="M263 1128l295 212q118 -112 259 -208q-4 12 -54 -44q-64 46 -209 155q-2 0 -230 -154q-27 27 -61 39zM43 540q-3 -38 -3 -73q0 -243 146 -349t402 -105q38 0 78 2q312 18 365 332q11 67 11 128q0 224 -152 364q-139 127 -350 128q-84 0 -180 -21q-293 -106 -317 -406z M198 472q-3 26 -3 50q0 229 234 338q60 13 114 13q145 0 245 -93q102 -94 102 -250q0 -56 -12 -118q-45 -225 -313 -224h-38q-301 16 -329 284z" />
<glyph unicode="&#xf5;" horiz-adv-x="1080" d="M165 1222q148 127 369 4t334 82q24 -74 47 -122q-133 -163 -361.5 -53t-326.5 -6zM43 540q-3 -38 -3 -73q0 -243 146 -349t402 -105q38 0 78 2q312 18 365 332q11 67 11 128q0 224 -152 364q-139 127 -350 128q-84 0 -180 -21q-293 -106 -317 -406zM198 472q-3 26 -3 50 q0 229 234 338q60 13 114 13q145 0 245 -93q102 -94 102 -250q0 -56 -12 -118q-45 -225 -313 -224h-38q-301 16 -329 284z" />
<glyph unicode="&#xf9;" horiz-adv-x="1075" d="M670.5 1241.5q18.5 -27.5 46.5 -37.5q13 -6 50.5 -21.5t76.5 -32t101 -41.5q23 -5 38 -7.5t27.5 -3.5t14.5 2t-14.5 23t-28.5 32q-6 6 -33.5 24t-59 39t-58 40.5t-31.5 28.5q-6 8 -22.5 18.5t-36.5 16.5t-39 3.5t-29 -20.5q-21 -36 -2.5 -63.5zM46 530q8 -162 41 -301.5 t113 -175.5q66 -41 217 -41h21q166 3 275.5 22t172.5 186v-5q0 -27 8 -188q43 -3 70 -6t72 -6l-32 961q-17 -24 -98 -24t-104 12q7 -214 10 -347q1 -50 1 -97q0 -78 -3 -150q-5 -114 -110 -164q-104 -48 -185 -52q-24 -1 -47 -1q-56 -1 -108 5q-74 8 -95 70q-21 60 -27 181 q-5 97 -5 194q1 25 1 49q2 122 11 303q-13 -6 -79.5 -6t-113.5 6q-8 -167 -8 -293q-1 -73 2 -132z" />
<glyph unicode="&#xfb;" horiz-adv-x="1075" d="M727 1138l295 212q118 -112 259 -208q-4 12 -54 -44q-64 46 -209 155q-2 0 -230 -154q-27 27 -61 39zM46 530q8 -162 41 -301.5t113 -175.5q66 -41 217 -41h21q166 3 275.5 22t172.5 186v-5q0 -27 8 -188q43 -3 70 -6t72 -6l-32 961q-17 -24 -98 -24t-104 12 q7 -214 10 -347q1 -50 1 -97q0 -78 -3 -150q-5 -114 -110 -164q-104 -48 -185 -52q-24 -1 -47 -1q-56 -1 -108 5q-74 8 -95 70q-21 60 -27 181q-5 97 -5 194q1 25 1 49q2 122 11 303q-13 -6 -79.5 -6t-113.5 6q-8 -167 -8 -293q-1 -73 2 -132z" />
<glyph unicode="&#x152;" horiz-adv-x="2041" d="M1005 19l2 1314l886 -4v-166h-730l1 -425h513v-106h-513l-1 -451l776 1q3 -126 12 -163h-946zM36 636q8 -363 130 -488.5t306 -128.5h5q143 0 275 118q134 120 137 486q-15 216 -22.5 282.5t-78 183t-181.5 153.5q-61 15 -120 16q-39 0 -75 -7q-94 -16 -179 -83 t-140 -193.5t-57 -338.5zM194 590q-1 27 -1 51q0 169 35 283q40 131 110.5 188.5t113.5 62.5q22 2 46.5 2.5t52.5 -2.5q58 -21 99 -68.5t54.5 -86.5t27.5 -97q24 -119 24 -277q0 -35 -2 -73q-6 -204 -58 -340q-52 -135 -220 -137q-2 0 -3 -1q-165 0 -219 145 q-54 146 -60 350z" />
<glyph unicode="&#x153;" horiz-adv-x="2193" d="M1142 362q50 -151 182 -251t384 -100q220 15 315 89.5t124 240.5l-155 15q-40 -160 -261 -188q-40 -5 -76 -5q-163 0 -244 105q-77 99 -76 197q0 29 6 57l796 4q-33 217 -221 365q-121 95 -286 95q-91 0 -196 -29q-216 -92 -279 -268q-35 -98 -35 -188q0 -72 22 -139z M1352 623q56 230 285 230h12q195 -1 303 -228zM43 540q-3 -38 -3 -73q0 -243 146 -349t402 -105q38 0 78 2q312 18 365 332q11 67 11 128q0 224 -152 364q-139 127 -350 128q-84 0 -180 -21q-293 -106 -317 -406zM198 472q-3 26 -3 50q0 229 234 338q60 13 114 13 q145 0 245 -93q102 -94 102 -250q0 -56 -12 -118q-45 -225 -313 -224h-38q-301 16 -329 284z" />
<glyph unicode="&#x2c6;" horiz-adv-x="677" d="M64 1148l295 212q118 -112 259 -208q-4 12 -54 -44q-64 46 -209 155q-2 0 -230 -154q-27 27 -61 39z" />
<glyph unicode="&#x2dc;" horiz-adv-x="600" d="M-375 255q148 127 369 4t334 82q24 -74 47 -122q-133 -163 -361.5 -53t-326.5 -6z" />
<glyph unicode="&#x2000;" horiz-adv-x="898" />
<glyph unicode="&#x2001;" horiz-adv-x="1796" />
<glyph unicode="&#x2002;" horiz-adv-x="898" />
<glyph unicode="&#x2003;" horiz-adv-x="1796" />
<glyph unicode="&#x2004;" horiz-adv-x="598" />
<glyph unicode="&#x2005;" horiz-adv-x="449" />
<glyph unicode="&#x2006;" horiz-adv-x="299" />
<glyph unicode="&#x2007;" horiz-adv-x="299" />
<glyph unicode="&#x2008;" horiz-adv-x="224" />
<glyph unicode="&#x2009;" horiz-adv-x="359" />
<glyph unicode="&#x200a;" horiz-adv-x="99" />
<glyph unicode="&#x2010;" horiz-adv-x="705" d="M141 788l15 43l417 1l-7 -44h-425z" />
<glyph unicode="&#x2011;" horiz-adv-x="705" d="M141 788l15 43l417 1l-7 -44h-425z" />
<glyph unicode="&#x2012;" horiz-adv-x="705" d="M141 788l15 43l417 1l-7 -44h-425z" />
<glyph unicode="&#x2013;" horiz-adv-x="1024" d="M141 788v44h751v-44h-751z" />
<glyph unicode="&#x2014;" horiz-adv-x="2048" d="M141 788v44h1775v-44h-1775z" />
<glyph unicode="&#x2018;" horiz-adv-x="487" d="M73.5 1180.5q18.5 -27.5 46.5 -37.5q13 -6 50.5 -21.5t76.5 -32t101 -41.5q23 -5 38 -7.5t27.5 -3.5t14.5 2t-14.5 23t-28.5 32q-6 6 -33.5 24t-59 39t-58 40.5t-31.5 28.5q-6 8 -22.5 18.5t-36.5 16.5t-39 3.5t-29 -20.5q-21 -36 -2.5 -63.5z" />
<glyph unicode="&#x2019;" horiz-adv-x="241" d="M61 1362q11 61 63 66q46 -10 48 -70t-13.5 -127.5t-38.5 -187.5q-31 118 -50.5 188t-8.5 131z" />
<glyph unicode="&#x201c;" horiz-adv-x="450" d="M73 1352q11 61 63 66q46 -10 48 -70t-13.5 -127.5t-38.5 -187.5q-31 118 -50.5 188t-8.5 131zM273 1356q11 61 63 66q46 -10 48 -70t-13.5 -127.5t-38.5 -187.5q-31 118 -50.5 188t-8.5 131z" />
<glyph unicode="&#x201d;" horiz-adv-x="450" d="M73 1352q11 61 63 66q46 -10 48 -70t-13.5 -127.5t-38.5 -187.5q-31 118 -50.5 188t-8.5 131zM273 1356q11 61 63 66q46 -10 48 -70t-13.5 -127.5t-38.5 -187.5q-31 118 -50.5 188t-8.5 131z" />
<glyph unicode="&#x2026;" horiz-adv-x="666" d="M470.5 144.5q20.5 64.5 112.5 56.5q82 -28 71 -103.5t-67 -85t-96.5 29t-20 103zM248.5 144.5q20.5 64.5 112.5 56.5q82 -28 71 -103.5t-67 -85t-96.5 29t-20 103zM26.5 144.5q20.5 64.5 112.5 56.5q82 -28 71 -103.5t-67 -85t-96.5 29t-20 103z" />
<glyph unicode="&#x202f;" horiz-adv-x="359" />
<glyph unicode="&#x2039;" horiz-adv-x="1024" d="M66 647l811 -556q8 24 16.5 40t32 40.5t39.5 30.5q-22 1 -148 68t-237 142t-347 232l737 472q-21 -1 -61 53q-9 8 -21 53z" />
<glyph unicode="&#x203a;" horiz-adv-x="1071" d="M80 1116q21 -1 61 53q9 8 21 53l822 -575l-811 -556q-8 24 -16.5 40t-32 40.5t-39.5 30.5q22 1 148 68t237 142t347 232z" />
<glyph unicode="&#x205f;" horiz-adv-x="449" />
<glyph unicode="&#x2122;" horiz-adv-x="2360" d="M1136 9l181 1169q-15 15 -24 15q-5 0 21.5 0t59.5 0.5t91 2.5q-24 -12 -21 -18q0 -4 42 -71t92 -145.5t133 -207.5q81 131 129 210.5t88 147.5t38 72q-11 13 -21 12q-3 0 22.5 0t56.5 0.5t85 2.5q-26 -7 -21 -18q2 -6 38 -191.5t78.5 -404.5t105.5 -573l-178 3l-163 931 l-249 -373l-300 397q-33 -298 -45 -480.5t-44 -480.5q-46 2 -95 2t-100 -2zM38 1138q27 43 79 43h7q32 4 113 4q92 0 246 -5q-6 -762 -6.5 -948t-58.5 -225h295q-75 52 -75 184q0 14 1 30q-1 8 -1 51q0 172 13 910h38q96 0 197 4h21q110 0 133 -48l-2 175q-150 -7 -472.5 -7 t-527.5 7v-175z" />
<glyph unicode="&#xe000;" horiz-adv-x="975" d="M0 975h975v-975h-975v975z" />
<glyph unicode="&#xfb01;" horiz-adv-x="1177" d="M915 18h190q-17 24 -17 46q0 10 6 156.5t15 318t22 455.5l-175 -17q23 -12 23 -46q-20 -284 -25.5 -449.5t-11 -303.5t-7.5 -140zM962 1139q31 -45 77 -45q7 0 15 1q56 10 70 76q-6 45 -21.5 65t-51.5 25q-5 0 -10 1q-39 0 -67 -30q-20 -20 -19 -51q0 -19 7 -42zM35 615 l244 -8l12 -584q27 -1 66.5 -1t91.5 1q-2 0 -8.5 98t-12.5 201q-4 76 -4 191q0 41 1 88l308 18l-6 137h-302q-15 135 -15 234v45q5 112 46 181q29 47 103 47q33 0 74 -9q93 -55 103 -59q12 0 98 101q-10 21 -174 80q-59 21 -114 21q-98 0 -183 -66q-89 -109 -89 -220v-54 v-51q0 -46 -0.5 -83t0 -79.5t0.5 -90.5h-220z" />
<glyph unicode="&#xfb02;" horiz-adv-x="1191" d="M906 1249q46 12 74 18q27 7 65 21q27 10 35 10q3 0 3 -2q0 -7 -4.5 -210.5t-8.5 -409.5q-1 -72 -1 -142q1 -129 5 -250q6 -179 27 -180q1 0 2 1q44 13 53.5 23.5t9.5 7.5q0 -2 -2 -17t-3.5 -32.5t-3.5 -44.5q-48 -23 -78 -29q-13 -3 -28 -3q-19 0 -43 5q-42 8 -47 54 q-6 45 -9 235t-4 402v134q0 127 1 226q2 149 2 156q0 13 -45 27zM35 615l244 -8l12 -584q27 -1 66.5 -1t91.5 1q-2 0 -8.5 98t-12.5 201q-4 76 -4 191q0 41 1 88l308 18l-6 137h-302q-15 135 -15 234v45q5 112 46 181q29 47 103 47q33 0 74 -9q93 -55 103 -59q12 0 98 101 q-10 21 -174 80q-59 21 -114 21q-98 0 -183 -66q-89 -109 -89 -220v-54v-51q0 -46 -0.5 -83t0 -79.5t0.5 -90.5h-220z" />
<glyph unicode="&#xfb03;" horiz-adv-x="2053" d="M1791 18h190q-17 24 -17 46q0 10 6 156.5t15 318t22 455.5l-175 -17q23 -12 23 -46q-20 -284 -25.5 -449.5t-11 -303.5t-7.5 -140zM1838 1139q31 -45 77 -45q7 0 15 1q56 10 70 76q-6 45 -21.5 65t-51.5 25q-5 0 -10 1q-39 0 -67 -30q-20 -20 -19 -51q0 -19 7 -42z M911 615l244 -8l12 -584q27 -1 66.5 -1t91.5 1q-2 0 -8.5 98t-12.5 201q-4 76 -4 191q0 41 1 88l308 18l-6 137h-302q-15 135 -15 234v45q5 112 46 181q29 47 103 47q33 0 74 -9q93 -55 103 -59q12 0 98 101q-10 21 -174 80q-59 21 -114 21q-98 0 -183 -66 q-89 -109 -89 -220v-54v-51q0 -46 -0.5 -83t0 -79.5t0.5 -90.5h-220zM35 615l244 -8l12 -584q27 -1 66.5 -1t91.5 1q-2 0 -8.5 98t-12.5 201q-4 76 -4 191q0 41 1 88l308 18l-6 137h-302q-15 135 -15 234v45q5 112 46 181q29 47 103 47q33 0 74 -9q93 -55 103 -59 q12 0 98 101q-10 21 -174 80q-59 21 -114 21q-98 0 -183 -66q-89 -109 -89 -220v-54v-51q0 -46 -0.5 -83t0 -79.5t0.5 -90.5h-220z" />
<glyph unicode="&#xfb04;" horiz-adv-x="2067" d="M1782 1249q46 12 74 18q27 7 65 21q27 10 35 10q3 0 3 -2q0 -7 -4.5 -210.5t-8.5 -409.5q-1 -72 -1 -142q1 -129 5 -250q6 -179 27 -180q1 0 2 1q44 13 53.5 23.5t9.5 7.5q0 -2 -2 -17t-3.5 -32.5t-3.5 -44.5q-48 -23 -78 -29q-13 -3 -28 -3q-19 0 -43 5q-42 8 -47 54 q-6 45 -9 235t-4 402v134q0 127 1 226q2 149 2 156q0 13 -45 27zM911 615l244 -8l12 -584q27 -1 66.5 -1t91.5 1q-2 0 -8.5 98t-12.5 201q-4 76 -4 191q0 41 1 88l308 18l-6 137h-302q-15 135 -15 234v45q5 112 46 181q29 47 103 47q33 0 74 -9q93 -55 103 -59q12 0 98 101 q-10 21 -174 80q-59 21 -114 21q-98 0 -183 -66q-89 -109 -89 -220v-54v-51q0 -46 -0.5 -83t0 -79.5t0.5 -90.5h-220zM35 615l244 -8l12 -584q27 -1 66.5 -1t91.5 1q-2 0 -8.5 98t-12.5 201q-4 76 -4 191q0 41 1 88l308 18l-6 137h-302q-15 135 -15 234v45q5 112 46 181 q29 47 103 47q33 0 74 -9q93 -55 103 -59q12 0 98 101q-10 21 -174 80q-59 21 -114 21q-98 0 -183 -66q-89 -109 -89 -220v-54v-51q0 -46 -0.5 -83t0 -79.5t0.5 -90.5h-220z" />
</font>
</defs>
</svg>
