<?xml version="1.0" encoding="UTF-8" standalone="no"?>
<svg
   xmlns:dc="http://purl.org/dc/elements/1.1/"
   xmlns:cc="http://creativecommons.org/ns#"
   xmlns:rdf="http://www.w3.org/1999/02/22-rdf-syntax-ns#"
   xmlns:svg="http://www.w3.org/2000/svg"
   xmlns="http://www.w3.org/2000/svg"
   viewBox="0 0 78.386665 151.46667"
   height="151.46667"
   width="78.386665"
   xml:space="preserve"
   id="svg2"
   version="1.1"><metadata
     id="metadata8"><rdf:RDF><cc:Work
         rdf:about=""><dc:format>image/svg+xml</dc:format><dc:type
           rdf:resource="http://purl.org/dc/dcmitype/StillImage" /></cc:Work></rdf:RDF></metadata><defs
     id="defs6"><clipPath
       id="clipPath20"
       clipPathUnits="userSpaceOnUse"><path
         id="path18"
         d="M 0,1135.96 V 0 h 587.934 v 1135.96 z" /></clipPath></defs><g
     transform="matrix(1.3333333,0,0,-1.3333333,0,151.46667)"
     id="g10"><g
       transform="scale(0.1)"
       id="g12"><g
         id="g14"><g
           clip-path="url(#clipPath20)"
           id="g16"><path
             id="path22"
             style="fill:#80cc28;fill-opacity:1;fill-rule:nonzero;stroke:none"
             d="M 173.715,0 298.43,882.016 414.242,0 H 173.715" /><path
             id="path24"
             style="fill:#27963c;fill-opacity:1;fill-rule:nonzero;stroke:none"
             d="m 391.977,1033.49 c 0,-56.58 -43.875,-102.443 -98.028,-102.443 -54.09,0 -97.976,45.863 -97.976,102.443 0,56.58 43.886,102.47 97.976,102.47 54.153,0 98.028,-45.89 98.028,-102.47" /><path
             id="path26"
             style="fill:#27963c;fill-opacity:1;fill-rule:nonzero;stroke:none"
             d="m 587.934,828.578 c 0,-56.566 -43.829,-102.48 -97.918,-102.48 -54.121,0 -98.039,45.914 -98.039,102.48 0,56.574 43.918,102.469 98.039,102.469 54.089,0 97.918,-45.895 97.918,-102.469" /><path
             id="path28"
             style="fill:#27963c;fill-opacity:1;fill-rule:nonzero;stroke:none"
             d="m 195.973,828.578 c 0,-56.566 -43.84,-102.48 -98.0042,-102.48 C 43.8516,726.098 0,772.012 0,828.578 c 0,56.574 43.8516,102.469 97.9688,102.469 54.1642,0 98.0042,-45.895 98.0042,-102.469" /></g></g></g></g></svg>